<svg version="1.1" xmlns="http://www.w3.org/2000/svg" viewBox="0 0 483.45 483.45">
  <!-- VectorSight logo — monochrome (dark, for light backgrounds) -->
  <g>
    <polygon fill="#D4D4D4" points="130.413,407.162 56.478,279.103 130.413,151.045 278.281,151.045 352.216,279.103 278.281,407.162"/>
    <polyline fill="#A3A3A3" points="130.413,407.162 56.478,279.103 130.413,151.045 278.281,151.045"/>
    <polygon fill="#0A0A0A" points="441.63,237.283 429.065,249.847 449.437,270.219 213.232,270.219 213.232,34.015 233.604,54.386 246.168,41.821 204.348,0 162.527,41.821 175.09,54.386 195.463,34.014 195.463,275.424 17.771,453.116 17.771,424.306 0.001,424.306 0.001,483.45 59.145,483.45 59.145,465.68 30.335,465.68 208.027,287.988 449.437,287.988 429.065,308.36 441.63,320.924 483.45,279.103"/>
  </g>
</svg>
