<svg xmlns="http://www.w3.org/2000/svg" viewBox="0 0 256 308" width="256" height="308">
  <path d="M 94.8,307.9 L 91.5,307.9 L 88.8,306.9 L 85.9,303.5 L 84.1,298.8 L 81.6,285.5 L 69.9,211.8 L 67.0,211.6 L 62.2,212.1 L 44.5,212.1 L 35.0,211.4 L 28.5,210.4 L 24.8,209.1 L 20.0,206.4 L 16.6,202.8 L 15.1,199.8 L 14.4,197.0 L 14.1,194.0 L 14.9,189.2 L 16.1,186.0 L 18.6,182.2 L 26.8,174.1 L 31.0,170.9 L 37.6,166.8 L 37.0,166.1 L 35.2,167.1 L 33.2,167.4 L 30.5,166.4 L 28.9,165.0 L 28.1,163.5 L 28.6,159.0 L 23.4,153.2 L 17.1,144.0 L 13.6,136.5 L 11.6,129.8 L 10.9,123.8 L 11.4,117.5 L 12.6,113.2 L 14.9,109.0 L 16.5,106.9 L 21.0,102.9 L 23.5,101.6 L 28.5,100.4 L 32.0,100.4 L 35.0,100.9 L 37.5,101.9 L 38.1,101.8 L 39.1,96.2 L 39.1,94.2 L 38.1,91.2 L 38.1,86.0 L 39.6,81.5 L 42.1,77.8 L 49.6,30.8 L 52.2,28.1 L 55.0,27.4 L 57.8,27.6 L 60.2,28.6 L 63.4,31.8 L 57.1,63.5 L 59.2,63.1 L 67.5,63.4 L 73.2,64.9 L 76.5,66.4 L 77.8,67.4 L 85.0,61.9 L 90.2,58.9 L 95.8,56.4 L 106.2,53.1 L 113.0,52.4 L 115.6,44.8 L 117.9,40.2 L 119.9,37.2 L 123.2,33.6 L 127.5,30.9 L 132.8,29.4 L 132.9,30.0 L 131.6,32.8 L 131.8,33.4 L 136.5,32.6 L 144.2,32.6 L 150.0,33.9 L 153.8,35.6 L 157.2,38.1 L 160.4,41.5 L 159.8,41.9 L 157.4,42.0 L 159.9,44.5 L 162.4,48.0 L 164.4,52.2 L 165.4,55.8 L 166.1,61.5 L 165.9,66.8 L 164.9,72.0 L 162.6,77.8 L 168.1,85.2 L 174.6,91.8 L 176.6,94.5 L 178.9,99.8 L 179.4,103.5 L 186.5,106.6 L 191.0,109.9 L 196.1,115.2 L 198.2,118.6 L 207.8,118.6 L 213.8,119.4 L 218.8,120.6 L 224.2,123.1 L 226.8,124.9 L 229.9,128.2 L 231.9,132.0 L 232.6,135.2 L 232.6,139.0 L 231.4,144.0 L 229.1,148.2 L 226.1,152.0 L 220.8,157.4 L 216.0,161.4 L 207.8,167.4 L 198.6,173.0 L 223.9,255.5 L 217.4,265.2 L 214.4,268.8 L 206.8,276.1 L 201.0,280.6 L 195.8,284.1 L 184.8,290.1 L 169.8,296.1 L 158.5,299.4 L 144.8,302.1 L 130.8,303.6 L 112.5,303.9 L 105.5,305.1 L 94.8,307.9 Z" fill="#4ECDC4" fill-opacity="0.3" stroke="#4ECDC4" stroke-width="1.5"/>
</svg>