<svg xmlns="http://www.w3.org/2000/svg" viewBox="0 0 256 308" width="256" height="308">
  <path d="M 81.9,285.0 C 81.3,276.5 79.5,270.2 77.8,263.5 C 76.1,257.0 75.0,249.5 74.7,240.5 C 74.2,230.0 73.7,219.5 68.5,215.5 C 64.2,212.0 57.2,212.1 49.1,212.1 C 42.9,212.1 35.8,211.8 29.5,210.0 C 23.2,208.3 17.9,205.4 15.7,200.8 C 13.1,195.6 15.3,187.5 19.7,181.0 C 23.6,174.0 31.9,170.6 34.5,168.9 C 34.2,166.9 21.9,153.1 17.4,144.3 C 11.9,134.6 7.8,118.7 14.5,109.2 C 19.3,100.0 36.2,102.9 37.6,97.6 C 38.0,91.5 39.5,84.9 41.5,78.3 C 43.6,71.0 45.4,62.9 45.6,54.0 C 46.0,42.2 47.7,30.2 57.5,28.7 C 63.0,27.3 63.5,36.5 61.4,44.9 C 59.5,53.1 55.3,58.1 59.4,61.7 C 66.0,67.5 78.0,66.8 84.6,62.1 C 91.4,56.8 103.1,55.8 110.7,51.8 C 116.2,47.1 119.1,34.9 126.9,31.5 C 131.5,29.2 135.0,32.2 141.6,33.1 C 148.0,34.2 155.2,35.3 158.2,39.3 C 163.7,45.5 164.6,57.3 165.0,68.0 C 165.4,75.0 164.4,80.9 168.7,86.9 C 173.4,92.9 179.3,98.1 182.9,103.0 C 188.4,111.3 196.9,118.8 209.2,118.9 C 217.0,119.9 224.5,121.2 228.2,127.0 C 233.7,135.0 232.7,148.0 224.4,154.9 C 216.7,162.4 203.5,166.7 200.2,174.2 C 198.6,178.2 201.7,183.9 204.1,189.5 C 206.4,195.0 207.4,200.4 208.4,205.7 C 209.6,213.5 211.9,221.4 216.2,229.5 C 239.2,263.9 193.4,289.7 165.9,297.1 C 137.5,298.6 85.8,324.2 81.9,285.0 Z" fill="#4ECDC4" fill-opacity="0.3" stroke="#4ECDC4" stroke-width="1.5"/>
</svg>