<svg xmlns="http://www.w3.org/2000/svg" viewBox="0 0 256 308" width="256" height="308">
  <path d="M 37.5,166.6 C 34.9,167.0 31.6,168.0 29.4,165.5 C 27.2,163.8 28.7,161.2 28.5,159.0 C 14.1,145.3 1.2,116.5 21.8,102.5 C 24.2,101.3 26.7,100.6 29.4,100.4 C 32.3,100.2 35.2,101.1 38.0,101.8 C 40.1,96.6 37.8,91.5 38.1,86.2 C 46.2,68.7 45.3,48.4 50.2,29.9 C 51.9,27.9 54.8,27.0 57.3,27.6 C 59.6,28.1 61.7,29.4 63.1,31.3 C 62.2,42.0 58.1,53.2 57.7,63.5 C 64.9,61.8 72.5,64.7 78.6,66.9 C 87.9,58.7 100.2,53.6 112.5,52.4 C 170.2,-22.3 152.2,130.1 221.7,121.9 C 227.4,124.3 232.2,129.6 232.6,136.0 C 231.6,154.6 211.9,163.6 198.7,173.3 C 207.0,200.7 215.6,228.1 223.7,255.7 C 201.3,293.3 153.5,304.7 112.6,303.9 C 106.2,304.6 100.1,307.1 93.7,307.9 C 91.5,308.0 88.9,307.5 87.5,305.6 C 86.0,304.2 85.6,302.1 84.6,300.4 C 78.6,271.0 75.2,241.1 69.5,211.6 C 51.5,210.7 24.1,218.3 14.7,198.2 C 14.1,195.5 14.2,193.0 14.6,190.4 C 15.3,187.8 16.4,185.4 17.9,183.3 C 20.1,180.4 22.7,177.7 25.5,175.4 C 29.0,171.9 33.5,169.5 37.5,166.6 Z" fill="#4ECDC4" fill-opacity="0.3" stroke="#4ECDC4" stroke-width="1.5"/>
</svg>