<svg xmlns="http://www.w3.org/2000/svg" version="1.1" xmlns:xlink="http://www.w3.org/1999/xlink" width="512" height="512" x="0" y="0" viewBox="0 0 512.001 512.001" style="enable-background:new 0 0 512 512" xml:space="preserve" class=""><g transform="matrix(-1,0,0,1,512.0009918212891,0)"><path d="M433.65 436.981c0-63.428-51.603-115.031-115.031-115.031s-115.031 51.603-115.031 115.031v45.012h-90.024v30.008h350.094v-30.008H433.65v-45.012zm-115.03 0c-11.049 0-20.005-8.956-20.005-20.005s8.956-20.005 20.005-20.005 20.005 8.956 20.005 20.005-8.956 20.005-20.005 20.005z" fill="#000000" opacity="1" data-original="#000000" class=""></path><path d="M464.272 150.546c-3.724-7.986-9.19-14.804-15.937-20.075L304.84 12.769l-.002.002C293.602 3.398 279.396-1.063 264.811.214c-14.048 1.229-26.82 7.649-36.177 18.112L60.561 149.9l.01.013c-10.937 8.219-18.025 21.298-18.025 36.001v75.02h30.008v30.008h30.008v-30.008h30.008v-75.02c0-4.858-.783-9.535-2.214-13.921l112.225-67.988 106.802 87.603-36.564 100.46c1.926-.076 3.858-.126 5.802-.126 37.537 0 71.789 14.335 97.571 37.817l49.917-137.147c5.025-13.808 4.372-28.747-1.837-42.066zM288.763 71.095a24.845 24.845 0 0 1-16.977 8.837c-6.629.578-13.089-1.448-18.198-5.712l-.075-.061c-5.104-4.292-8.236-10.314-8.817-16.96-.582-6.654 1.461-13.136 5.756-18.254a24.843 24.843 0 0 1 16.977-8.837 25.495 25.495 0 0 1 2.223-.097c5.863 0 11.486 2.039 16.031 5.853a24.845 24.845 0 0 1 8.837 16.977c.581 6.654-1.464 13.137-5.757 18.254zM437.91 182.35c-2.285 6.277-6.877 11.288-12.93 14.111a24.84 24.84 0 0 1-19.121.835c-12.958-4.716-19.662-19.094-14.946-32.052 2.285-6.277 6.877-11.288 12.93-14.111a24.936 24.936 0 0 1 10.553-2.356c2.884 0 5.776.505 8.567 1.521 6.277 2.285 11.288 6.877 14.111 12.93 2.824 6.054 3.12 12.845.836 19.122z" fill="#000000" opacity="1" data-original="#000000" class=""></path></g></svg>